<svg width="120" height="120" viewBox="0 0 120 120" fill="none" xmlns="http://www.w3.org/2000/svg">
<g id="Group 23">
<path id="Vector" d="M0 0H119.999V120H0V0Z" fill="#F0DB4F"/>
<path id="Vector_2" d="M110.178 91.3797C109.299 85.9052 105.73 81.3069 95.1555 77.0192C91.4822 75.3311 87.3871 74.1223 86.1669 71.3386C85.7336 69.7186 85.6761 68.8061 85.9502 67.8254C86.7372 64.6429 90.5361 63.6508 93.547 64.5634C95.4862 65.2133 97.3219 66.7077 98.429 69.0917C103.607 65.7386 103.597 65.7606 107.213 63.4562C105.889 61.4039 105.182 60.4568 104.316 59.5788C101.201 56.1001 96.9576 54.3085 90.1709 54.4456L86.6356 54.9028C83.248 55.7588 80.0195 57.537 78.1263 59.921C72.4457 66.3665 74.0657 77.647 80.9781 82.2895C87.7878 87.4006 97.7916 88.5634 99.0694 93.3429C100.313 99.194 94.7692 101.088 89.2593 100.415C85.1987 99.5708 82.9403 97.5069 80.4988 93.7541C76.005 96.3547 76.005 96.3547 71.3846 99.0119C72.4802 101.407 73.6315 102.492 75.4681 104.567C84.1606 113.384 105.913 112.951 109.814 99.6053C109.972 99.1471 111.023 96.0911 110.178 91.3797ZM65.2353 55.152H54.0113L53.9653 84.1702C53.9653 90.3415 54.2845 95.9991 53.2808 97.7332C51.6388 101.144 47.3836 100.721 45.4444 100.06C43.4707 99.0896 42.4671 97.7102 41.3043 95.7604C40.9851 95.2006 40.7455 94.7673 40.6649 94.7338L31.5392 100.322C33.0567 103.437 35.2921 106.14 38.1554 107.896C42.4326 110.463 48.1812 111.25 54.1934 109.87C58.1063 108.73 61.4824 106.369 63.2501 102.775C65.8056 98.0639 65.2573 92.3613 65.2343 86.0538C65.2918 75.7634 65.2353 65.475 65.2353 55.152Z" fill="#323330"/>
</g>
</svg>
