<svg width="117" height="120" viewBox="0 0 117 120" fill="none" xmlns="http://www.w3.org/2000/svg">
<path id="Vector" d="M23.8935 0.104116C23.7072 0.175757 18.4408 3.17825 12.1951 6.77039C4.62683 11.1258 0.740818 13.4183 0.532475 13.6332C0.367269 13.8197 0.180953 14.143 0.124049 14.3478C-0.0338151 14.875 -0.0448288 92.1452 0.113035 92.7009C0.170857 92.9158 0.357173 93.2318 0.52605 93.4081C0.934476 93.838 46.1147 119.835 46.6635 119.961C46.9178 120.022 47.205 120.011 47.4877 119.933C48.1045 119.778 93.1672 93.8389 93.5683 93.4146C93.7335 93.2318 93.9198 92.9158 93.9813 92.7009C94.0602 92.4465 94.0887 88.4061 94.0887 79.9001V67.4677L105.074 61.1532C115.431 55.1941 116.066 54.8212 116.331 54.4116L116.604 53.9707V40.5812C116.604 26.0041 116.632 26.8253 116.055 26.299C115.901 26.1612 110.623 23.0797 104.317 19.4453L92.8625 12.8507H91.5895L80.383 19.291C74.2126 22.8437 68.9673 25.8783 68.7121 26.0436C68.4579 26.2117 68.1532 26.524 68.0274 26.7509L67.8017 27.1412L67.7512 39.7564L67.7053 52.3744L58.4519 57.7089C53.3608 60.637 49.1233 63.0627 49.0333 63.0838C48.8681 63.1297 48.858 61.9284 48.858 38.7406V14.3368L48.6139 13.917C48.3092 13.4073 49.6785 14.222 35.9261 6.31116C24.3919 -0.326648 24.6673 -0.18704 23.8935 0.104116ZM34.4952 9.76645C39.321 12.5356 43.2685 14.8282 43.2685 14.8566C43.2685 14.8851 39.0374 17.3328 33.8683 20.3069L24.4607 25.7102L15.0715 20.3069C9.91159 17.3328 5.68507 14.8851 5.68507 14.8566C5.68507 14.8282 9.90425 12.3813 15.0633 9.41376L24.4314 4.02232L25.0766 4.37318C25.4391 4.57065 29.6803 6.99726 34.4952 9.76645ZM101.635 22.1961C106.716 25.1242 110.918 27.5417 110.957 27.5821C111.065 27.6785 92.4321 38.3953 92.1778 38.3842C91.9227 38.3778 73.5205 27.7575 73.5279 27.6289C73.538 27.482 92.0521 16.8222 92.2384 16.8506C92.3247 16.8727 96.5549 19.28 101.635 22.1961ZM13.615 23.7429L22.571 28.9019L22.6215 54.4474L22.6673 79.9957L22.8867 80.3401C23.0014 80.5238 23.2171 80.7708 23.3731 80.8857C23.5209 80.9931 28.5037 83.834 34.4447 87.1891L45.2363 93.2878V104.095C45.2363 110.025 45.1969 114.89 45.1473 114.89C45.1078 114.89 35.7792 109.548 24.4213 103.008L3.77327 91.1257L3.74573 54.5953L3.72738 18.075L4.18628 18.3294C4.45153 18.4699 8.68907 20.9048 13.615 23.7429ZM45.2363 41.7247V65.2643L44.8747 65.5012C44.3837 65.8135 26.4496 76.128 26.39 76.128C26.3606 76.128 26.3386 65.5012 26.3386 52.5094L26.3496 28.9019L35.7177 23.5105C40.8694 20.5429 45.1179 18.1356 45.1684 18.153C45.2051 18.1742 45.2363 28.7834 45.2363 41.7247ZM80.9778 36.3112L90.367 41.7137V52.4231C90.367 62.5842 90.356 63.1297 90.2018 63.0719C90.1017 63.0324 85.8532 60.5966 80.7547 57.6584L71.4729 52.323V41.6182C71.4729 35.7234 71.5014 30.9088 71.5307 30.9088C71.5702 30.9088 75.8187 33.3363 80.9778 36.3112ZM112.982 41.5493C112.982 47.4119 112.943 52.2477 112.904 52.2945C112.836 52.402 94.264 63.1114 94.1456 63.1114C94.1181 63.1114 94.0887 58.2967 94.0887 52.402V41.6972L103.457 36.3011C108.615 33.3372 112.864 30.9088 112.904 30.9088C112.954 30.9088 112.983 35.694 112.983 41.5502L112.982 41.5493ZM79.1486 61.0283C87.0473 65.5775 88.4093 66.3922 88.2734 66.4996C88.1835 66.5566 85.1896 68.2787 81.6267 70.3168C78.0628 72.3512 68.8305 77.6187 61.1044 82.0237L47.0646 90.0392L46.6167 89.7948C43.9349 88.3271 28.3752 79.4694 28.3752 79.4014C28.3679 79.2544 69.5446 55.5744 69.7089 55.6359C69.7878 55.6635 74.0364 58.091 79.1486 61.0283ZM90.3495 80.3989L90.3165 91.1266L69.6804 103.009C58.3262 109.548 48.9939 114.891 48.947 114.891C48.8975 114.891 48.858 110.525 48.858 104.095V93.2896L69.5446 81.4854C80.9089 74.9955 90.2486 69.6821 90.2991 69.6711C90.3385 69.6711 90.356 74.4968 90.3495 80.3989Z" fill="#F05340"/>
</svg>
