<svg width="120" height="120" viewBox="0 0 120 120" fill="none" xmlns="http://www.w3.org/2000/svg">
<path id="Vector" d="M60 0C26.94 0 0 26.94 0 60C0 93.06 26.94 120 60 120C93.06 120 120 93.06 120 60C120 26.94 93.06 0 60 0ZM6.06 60C6.06 52.2 7.74 44.76 10.74 38.04L36.48 108.54C18.48 99.78 6.06 81.36 6.06 60ZM60 113.94C54.72 113.94 49.62 113.16 44.76 111.72L60.96 64.68L77.52 110.1C77.64 110.34 77.76 110.64 77.88 110.82C72.3 112.86 66.3 113.94 60 113.94ZM67.44 34.68C70.68 34.5 73.62 34.14 73.62 34.14C76.5 33.78 76.2 29.52 73.26 29.7C73.26 29.7 64.5 30.36 58.86 30.36C53.58 30.36 44.64 29.7 44.64 29.7C41.76 29.58 41.4 34.02 44.34 34.2C44.34 34.2 47.1 34.56 49.98 34.74L58.38 57.78L46.56 93.18L26.94 34.68C30.18 34.56 33.12 34.2 33.12 34.2C36 33.84 35.7 29.58 32.76 29.76C32.76 29.76 24 30.42 18.36 30.42C17.34 30.42 16.14 30.42 14.88 30.36C24.6 15.72 41.16 6.06 60 6.06C74.04 6.06 86.82 11.4 96.42 20.22C96.18 20.22 95.94 20.16 95.7 20.16C90.42 20.16 86.64 24.78 86.64 29.76C86.64 34.2 89.22 37.98 91.92 42.42C93.96 46.02 96.36 50.64 96.36 57.3C96.36 61.92 94.56 67.26 92.28 74.76L86.88 92.76L67.44 34.68ZM107.34 34.14C114.079 46.4738 115.737 60.9514 111.96 74.4894C108.184 88.0274 99.2708 99.556 87.12 106.62L103.62 58.98C106.68 51.3 107.7 45.12 107.7 39.66C107.7 37.68 107.58 35.82 107.34 34.14Z" fill="#151F1E"/>
</svg>
